{
  "accessors": [
    {
      "bufferView": 2,
      "componentType": 5126,
      "count": 1561,
      "max": [
        2.7550399303436279,
        2.0875298976898193,
        2.6554000377655029
      ],
      "min": [
        -2.269279956817627,
        -2.6327400207519531,
        -0.2266400009393692
      ],
      "type": "VEC3"
    },
    {
      "bufferView": 2,
      "byteOffset": 18732,
      "componentType": 5126,
      "count": 1561,
      "max": [
        0.99884676933288574,
        0.99454581737518311,
        1
      ],
      "min": [
        -0.95097821950912476,
        -1,
        -0.99806606769561768
      ],
      "type": "VEC3"
    },
    {
      "bufferView": 3,
      "componentType": 5126,
      "count": 1561,
      "max": [
        1,
        0.98177993297576904,
        0.88526833057403564,
        1
      ],
      "min": [
        -0.94751358032226562,
        -0.99964404106140137,
        -0.98196077346801758,
        -1
      ],
      "type": "VEC4"
    },
    {
      "bufferView": 1,
      "componentType": 5126,
      "count": 1561,
      "max": [
        0.13665999472141266,
        0.6431499719619751
      ],
      "min": [
        0.044900000095367432,
        0.127920001745224
      ],
      "type": "VEC2"
    },
    {
      "bufferView": 0,
      "componentType": 5125,
      "count": 1854,
      "max": [
        1560
      ],
      "min": [
        0
      ],
      "type": "SCALAR"
    }
  ],
  "asset": {
    "extras": {
      "author": "Fabian Orrego (https://sketchfab.com/fabian_orrego)",
      "license": "CC-BY-4.0 (http://creativecommons.org/licenses/by/4.0/)",
      "source": "https://sketchfab.com/models/fd46ebd4ad8b475ebbbc4e4d99924880",
      "title": "Wrath of the Dragon - Magic spell warrior"
    },
    "generator": "Sketchfab-3.19.3",
    "version": "2.0"
  },
  "bufferViews": [
    {
      "buffer": 0,
      "byteLength": 7416,
      "byteOffset": 0,
      "name": "floatBufferViews",
      "target": 34963
    },
    {
      "buffer": 0,
      "byteLength": 12488,
      "byteOffset": 7416,
      "byteStride": 8,
      "name": "floatBufferViews",
      "target": 34962
    },
    {
      "buffer": 0,
      "byteLength": 37464,
      "byteOffset": 19904,
      "byteStride": 12,
      "name": "floatBufferViews",
      "target": 34962
    },
    {
      "buffer": 0,
      "byteLength": 24976,
      "byteOffset": 57368,
      "byteStride": 16,
      "name": "floatBufferViews",
      "target": 34962
    }
  ],
  "buffers": [
    {
      "byteLength": 82344,
      "uri": "scene.bin"
    }
  ],
  "images": [
    {
      "uri": "textures/TranslucencyMaterial_baseColor.png"
    },
    {
      "uri": "textures/TranslucencyMaterial_emissive.png"
    }
  ],
  "materials": [
    {
      "alphaMode": "BLEND",
      "doubleSided": true,
      "emissiveFactor": [
        1,
        1,
        1
      ],
      "emissiveTexture": {
        "index": 1,
        "texCoord": 0
      },
      "name": "TranslucencyMaterial",
      "pbrMetallicRoughness": {
        "baseColorFactor": [
          1,
          1,
          1,
          0.68730945119999998
        ],
        "baseColorTexture": {
          "index": 0,
          "texCoord": 0
        },
        "metallicFactor": 0,
        "roughnessFactor": 0.59999999999999998
      }
    }
  ],
  "meshes": [
    {
      "name": "MagicSpellWarrior_0",
      "primitives": [
        {
          "attributes": {
            "NORMAL": 1,
            "POSITION": 0,
            "TANGENT": 2,
            "TEXCOORD_0": 3
          },
          "indices": 4,
          "material": 0,
          "mode": 4
        }
      ]
    }
  ],
  "nodes": [
    {
      "children": [
        1
      ],
      "name": "RootNode (gltf orientation matrix)",
      "rotation": [
        -0.70710678118654746,
        -0,
        -0,
        0.70710678118654757
      ]
    },
    {
      "children": [
        2
      ],
      "name": "RootNode (model correction matrix)"
    },
    {
      "children": [
        3
      ],
      "name": "Root"
    },
    {
      "children": [
        4
      ],
      "matrix": [
        0.73858000000000001,
        0.67416000000000009,
        0,
        0,
        -0.67416000000000009,
        0.73858000000000001,
        0,
        0,
        0,
        0,
        1,
        0,
        0.31447000000000008,
        51.423839999999998,
        0.66460000000000019,
        1
      ],
      "name": "MagicSpellWarrior"
    },
    {
      "mesh": 0,
      "name": "MagicSpellWarrior_0"
    }
  ],
  "samplers": [
    {
      "magFilter": 9729,
      "minFilter": 9987,
      "wrapS": 10497,
      "wrapT": 10497
    }
  ],
  "scene": 0,
  "scenes": [
    {
      "name": "OSG_Scene",
      "nodes": [
        0
      ]
    }
  ],
  "textures": [
    {
      "sampler": 0,
      "source": 0
    },
    {
      "sampler": 0,
      "source": 1
    }
  ]
}

